# xmcd
#
# Track frame offsets: 
#        150
#        18457
#        36764
#        49871
#        63029
#        80586
#        100543
#        118249
#        134456
#        149162
#        165320
#        181376
#        195236
#        212185
#        229442
#        247328
#        265966
#        284122
#        300219
#        318075
#        334035
#
# Disc length: 4667 seconds
#
# Revision: 28
# Processed by: cddbd v1.5.2PL0 Copyright (c) Steve Scherf et al.
# Submitted via: ExactAudioCopy v0.95b4
#
DISCID=36123915
DTITLE=Shania Twain - Greatest Hits
DYEAR=2004
DGENRE=Crossover
TTITLE0=Forever And For Always
TTITLE1=I'm Gonna Getcha Good
TTITLE2=Up!
TTITLE3=Come On Over
TTITLE4=Man! I Feel Like A Woman!
TTITLE5=That Don't Impress Me Much
TTITLE6=From This Moment On
TTITLE7=Honey, I'm Home
TTITLE8=You're Still The One
TTITLE9=Don't Be Stupid
TTITLE10=Love Gets Me Every Time
TTITLE11=No One Needs To Know
TTITLE12=You Win My Love
TTITLE13=(If You're Not In It For Love) I'm Outta Here!
TTITLE14=The Woman In Me (Needs The Man In You)
TTITLE15=Any Man Of Mine
TTITLE16=Whose Bed Have Your Boots Been Under?
TTITLE17=Party For Two (featuring Mark McGrath)
TTITLE18=Don't!
TTITLE19=Party For Two (featuring Billy Currington)
TTITLE20=I Ain't No Quitter
EXTD=
EXTT0=
EXTT1=
EXTT2=
EXTT3=
EXTT4=
EXTT5=
EXTT6=
EXTT7=
EXTT8=
EXTT9=
EXTT10=
EXTT11=
EXTT12=
EXTT13=
EXTT14=
EXTT15=
EXTT16=
EXTT17=
EXTT18=
EXTT19=
EXTT20=
PLAYORDER=
